<svg xmlns="http://www.w3.org/2000/svg" width="512" height="512" viewBox="0 0 512 512" role="img" aria-label="Patchlog icon">
  <defs>
    <linearGradient id="bg" x1="80" y1="40" x2="448" y2="472" gradientUnits="userSpaceOnUse">
      <stop offset="0" stop-color="#111827"/>
      <stop offset="0.48" stop-color="#18181b"/>
      <stop offset="1" stop-color="#0f172a"/>
    </linearGradient>
    <linearGradient id="accent" x1="142" y1="122" x2="374" y2="390" gradientUnits="userSpaceOnUse">
      <stop offset="0" stop-color="#60a5fa"/>
      <stop offset="0.52" stop-color="#a78bfa"/>
      <stop offset="1" stop-color="#f43f5e"/>
    </linearGradient>
    <filter id="shadow" x="-20%" y="-20%" width="140%" height="140%">
      <feDropShadow dx="0" dy="18" stdDeviation="18" flood-color="#000000" flood-opacity="0.3"/>
    </filter>
  </defs>
  <rect width="512" height="512" rx="112" fill="url(#bg)"/>
  <circle cx="118" cy="108" r="84" fill="#2563eb" opacity="0.24"/>
  <circle cx="404" cy="412" r="118" fill="#f43f5e" opacity="0.18"/>
  <g filter="url(#shadow)">
    <rect x="122" y="104" width="268" height="304" rx="52" fill="#ffffff"/>
    <path d="M182 173h95c63 0 101 35 101 89 0 57-40 91-105 91h-29v59h-62V173Zm62 51v79h30c27 0 43-15 43-40 0-24-16-39-43-39h-30Z" fill="#111827"/>
    <path d="M160 380h210" stroke="url(#accent)" stroke-width="28" stroke-linecap="round"/>
  </g>
</svg>
